<?xml version="1.0" encoding="utf-8"?>
<!-- Generator: Adobe Illustrator 26.0.1, SVG Export Plug-In . SVG Version: 6.00 Build 0)  -->
<svg version="1.1" id="圖層_1" xmlns="http://www.w3.org/2000/svg" xmlns:xlink="http://www.w3.org/1999/xlink" x="0px" y="0px"
	 viewBox="239.60 440.41 60.95 60.54" style="enable-background:new 0 0 595.28 841.89;" xml:space="preserve">
<style type="text/css">
	.st0{fill:#70A831;}
</style>
<path class="st0" d="M270.04,498.69c-6.46,0-12.91,0.01-19.37,0c-5.19-0.01-8.78-3.52-8.79-8.69c-0.03-12.8-0.03-25.6-0.01-38.4
	c0.01-5.37,3.61-8.91,8.95-8.92c12.75-0.01,25.5-0.01,38.25-0.01c5.72,0,9.19,3.42,9.2,9.13c0.02,12.74,0.03,25.49,0.01,38.23
	c-0.01,5.06-3.6,8.61-8.69,8.62c-6.51,0.02-13.02,0-19.54,0C270.04,498.67,270.04,498.68,270.04,498.69z M276.12,484.86
	c0.32-0.74,0.57-1.31,0.81-1.86c4.44,1.4,7.23,0.63,9.39-2.43c0.65-0.92,0.97-1.85-0.1-2.58c-0.97-0.66-1.72-0.12-2.35,0.76
	c-1.72,2.39-3.56,2.73-5.98,1.17c2.7-1.15,3.82-3.3,2.98-5.76c-0.68-2-3.27-3.19-5.49-2.51c-1.4,0.43-2.33,1.42-2.51,2.81
	c-0.16,1.28,0.08,2.61,0.15,3.98c-4.81-1.44-9.02,2.29-14.11,2.06c0.5-0.64,0.83-1.04,1.14-1.47c1.68-2.25,3.48-4.43,4.96-6.8
	c0.69-1.11,1.32-1.5,2.55-1.45c2.54,0.09,5.08,0.06,7.62,0.05c1.94-0.01,3.06-0.89,3-2.29c-0.06-1.3-1.01-1.95-2.9-1.96
	c-2.75-0.01-5.5,0-8.39,0c0.2-1.14,0.43-2.11,0.54-3.08c0.11-1,0.54-1.42,1.6-1.38c1.82,0.07,3.64,0.02,5.46-0.01
	c1.67-0.03,2.74-1.04,2.63-2.51c-0.11-1.61-1.24-1.87-2.59-1.85c-1.92,0.03-3.83,0.01-5.92,0.01c0.29-1.82,0.71-3.44,0.72-5.06
	c0.01-0.75-0.61-1.89-1.24-2.15c-0.67-0.27-1.83,0.09-2.48,0.58c-0.51,0.38-0.65,1.34-0.82,2.08c-0.34,1.48-0.58,2.99-0.88,4.58
	c-2.09,0-4.02-0.03-5.95,0.01c-1.59,0.03-2.61,1.02-2.53,2.42c0.09,1.59,1.15,1.97,2.52,1.95c1.68-0.02,3.36,0,5.18,0
	c-0.31,1.65-0.56,2.99-0.84,4.48c-2.96,0-5.82-0.02-8.67,0.01c-1.58,0.02-2.52,0.9-2.51,2.23c0.01,1.29,0.83,1.96,2.49,1.98
	c2.35,0.02,4.7,0.01,7.42,0.01c-0.65,0.95-1.05,1.64-1.56,2.26c-1.95,2.4-3.91,4.78-5.91,7.14c-0.79,0.93-1.44,1.86-0.81,3.12
	c0.6,1.22,1.7,1.4,2.93,1.43c3.96,0.08,7.58-1.19,11.21-2.56c1.46-0.55,3.07-0.71,4.97-1.12c-1.87,5.88-5.82,8.54-11.12,9.87
	c1.05,0.56,2.01,0.96,2.99,0.99c2.8,0.09,5.45-0.7,7.49-2.59c2.03-1.88,4.21-1.16,6.64-1.29c-0.43,1.24-0.81,2.21-1.1,3.2
	c-0.32,1.09,0.1,1.85,1.28,1.67c1.41-0.22,2.79-0.64,4.14-1.1c0.33-0.11,0.74-0.79,0.67-1.11c-0.08-0.34-0.64-0.72-1.05-0.81
	c-0.54-0.12-1.13,0.03-1.76,0.07C281.53,485.76,281.36,485.53,276.12,484.86z M281.79,470.85c0.1,0.07,0.2,0.14,0.29,0.2
	c0.24-0.27,0.58-0.5,0.71-0.82c0.55-1.28,1.38-1.75,2.85-1.88c2.43-0.21,4.04-2.68,3.82-5.37c-2.99-0.16-4.84,1.42-6.08,4.14
	c-0.59-3.33-2.01-4.71-4.52-4.63c-0.36,2.57,0.55,4.02,3.68,5.77C282.3,469.11,282.04,469.98,281.79,470.85z"/>
</svg>
