<?xml version="1.0" encoding="utf-8"?>
<!-- Generator: Adobe Illustrator 26.0.1, SVG Export Plug-In . SVG Version: 6.00 Build 0)  -->
<svg version="1.1" id="圖層_1" xmlns="http://www.w3.org/2000/svg" xmlns:xlink="http://www.w3.org/1999/xlink" x="0px" y="0px"
	 viewBox="205.87 446.14 128.52 49.11" style="enable-background:new 0 0 595.28 841.89;" xml:space="preserve">
<style type="text/css">
	.st0{fill:#F4BF2D;}
	.st1{fill:#76AA33;}
	.st2{fill:#70A831;}
	.st3{fill:#76A93B;}
	.st4{fill:#8D6C4F;}
	.st5{fill:#B8BC2F;}
</style>
<path class="st0" d="M226.09,479.55c-4.36,1.75-8.78,3.33-13.57,3.1c-1.01-0.05-2.31-0.63-2.88-1.4c-0.76-1.03-0.17-2.24,0.7-3.27
	c2.27-2.7,4.45-5.48,6.64-8.24c0.46-0.57,0.81-1.23,1.45-2.2c-3.11,0-5.79-0.01-8.46,0.01c-1.2,0.01-1.92-0.63-2.07-1.72
	c-0.17-1.17,0.43-2.04,1.6-2.35c0.57-0.15,1.2-0.17,1.8-0.18c2.75-0.02,5.49-0.01,8.31-0.01c0.24-1.42,0.44-2.65,0.69-4.12
	c-1.8,0-3.49,0.01-5.18,0c-1.81-0.01-2.71-0.73-2.7-2.15c0.01-1.42,0.89-2.12,2.71-2.13c1.92-0.01,3.83,0,5.78,0
	c0.26-1.71,0.44-3.23,0.74-4.74c0.29-1.48,1.35-2.22,2.74-1.96c1.48,0.27,1.95,1.2,1.68,2.67c-0.23,1.24-0.29,2.5-0.46,4.02
	c2.04,0,3.94,0.04,5.85-0.01c1.39-0.04,2.61,0.12,2.76,1.83c0.13,1.47-1.01,2.42-2.86,2.44c-2.09,0.02-4.18,0.01-6.39,0.01
	c-0.22,1.36-0.43,2.59-0.67,4.11c2.7,0,5.27,0,7.83,0c0.61,0,1.21-0.03,1.82-0.01c1.57,0.05,2.38,0.8,2.33,2.16
	c-0.04,1.3-0.92,2.11-2.42,2.12c-2.98,0.03-5.96,0.05-8.94-0.01c-1.01-0.02-1.51,0.33-2.07,1.19c-1.81,2.76-3.78,5.41-5.7,8.1
	c-0.24,0.34-0.48,0.68-1.01,1.42c2.66-0.6,4.89-1.11,7.12-1.61C224.2,477.58,225.15,478.57,226.09,479.55z"/>
<path class="st1" d="M226.09,479.55c-0.94-0.98-1.88-1.96-2.83-2.94c3.84-1.56,7.81-2.2,11.99-1.54c-1.59-3.96-0.75-7,2.19-8.3
	c2.67-1.18,5.99,0.01,7.21,2.57c1.49,3.12,0.31,5.83-3.35,7.72c2.23,1.78,4.79,1.63,6.68-0.39c0.38-0.4,0.66-0.89,1.06-1.27
	c0.83-0.79,1.82-1.22,2.79-0.35c0.93,0.83,0.8,1.84,0.1,2.82c-2.28,3.21-6.54,4.62-10.28,3.38c-0.57-0.19-1.13-0.4-1.87-0.67
	c-0.35,0.82-0.67,1.59-1.01,2.39c6.68,1.32,6.68,1.32,4.94,6.31c0.71,0,1.46-0.16,2.09,0.05c0.53,0.17,1.23,0.73,1.29,1.19
	c0.06,0.44-0.51,1.29-0.96,1.43c-1.84,0.55-3.74,0.97-5.64,1.27c-1.4,0.22-2.08-0.71-1.58-2.04c0.5-1.33,1.12-2.62,1.85-4.32
	c-2.94,0.19-5.58-0.94-8.19,1.04c-3.34,2.53-7.16,3.91-11.45,3.35c-0.92-0.12-1.8-0.5-2.7-0.76c0-0.21,0-0.42,0-0.62
	c0.56-0.18,1.12-0.43,1.69-0.54c6.12-1.22,10.44-4.61,12.87-10.53C230.48,478.11,228.3,479,226.09,479.55z"/>
<path class="st1" d="M318.53,457.25c-0.7,4.04-0.68,4.02,2.63,6.02c1.46,0.88,2.89,1.83,4.24,2.86c1.14,0.87,1.25,2.18,0.39,3.18
	c-0.92,1.07-1.91,1.07-3.03,0.2c-1.69-1.31-3.45-2.53-5.45-3.98c-0.32,2.6-0.61,4.91-0.9,7.22c-0.19,1.53-0.38,3.06-0.61,4.58
	c-0.21,1.4-1.22,2.16-2.54,1.92c-1.35-0.25-1.75-1.11-1.58-2.42c0.78-5.95,1.52-11.91,2.27-17.86c0.06-0.49,0.12-0.97,0.21-1.74
	c-2.6,0-5.1-0.01-7.6,0.01c-1.24,0.01-2.55,0.16-2.68-1.62c-0.11-1.49,0.98-2.56,2.77-2.57c7.28-0.02,14.55,0,21.83,0
	c1.2,0,2.07,0.39,2.14,1.74c0.08,1.45-0.78,2.42-2.29,2.44C325.1,457.28,321.86,457.25,318.53,457.25z"/>
<path class="st2" d="M284.12,463.42c3.59,0,7.18,0.04,10.76-0.02c1.41-0.02,2.43,0.31,2.53,1.89c0.1,1.49-0.94,2.56-2.58,2.6
	c-2.59,0.05-5.19,0.02-7.78,0.02c-4.8,0-9.6-0.01-14.4,0.02c-1.35,0.01-2.46-0.2-2.5-1.88c-0.03-1.6,0.99-2.62,2.71-2.63
	c3.75-0.02,7.51-0.01,11.26-0.01C284.12,463.41,284.12,463.41,284.12,463.42z"/>
<path class="st3" d="M249.6,464.13c1.63-4.04,4.48-5.81,8.07-5.15c0.28,3.02-1.89,6.08-4.92,6.34c-1.8,0.16-3.08,0.5-3.76,2.29
	c-0.15,0.41-0.79,0.63-1.42,0.67c0.4-1.14,0.79-2.28,1.19-3.41c-4.13-1.44-5.13-2.75-4.88-6.15
	C246.9,458.39,248.74,460.08,249.6,464.13z"/>
<g>
	<path class="st4" d="M272.63,487.69h4.28v0.32h-4.28V487.69z M273.53,483.85l0.33,0.07c-0.07,0.25-0.15,0.49-0.24,0.72
		c-0.1,0.23-0.2,0.45-0.32,0.65c-0.11,0.2-0.24,0.38-0.37,0.54c-0.02-0.02-0.05-0.04-0.08-0.07c-0.03-0.02-0.07-0.05-0.11-0.07
		c-0.04-0.02-0.07-0.04-0.1-0.05c0.13-0.14,0.26-0.31,0.37-0.5c0.11-0.19,0.21-0.39,0.3-0.61
		C273.4,484.31,273.47,484.08,273.53,483.85z M273.15,486.12h3.36v0.31h-3.36V486.12z M273.36,484.71h3.32v0.32h-3.32V484.71z
		 M274.6,483.77h0.34v4.08h-0.34V483.77z"/>
	<path class="st4" d="M279.5,485.38l0.18-0.23c0.1,0.04,0.2,0.1,0.31,0.16c0.11,0.06,0.22,0.12,0.32,0.18
		c0.1,0.06,0.19,0.11,0.25,0.15l-0.18,0.26c-0.06-0.04-0.15-0.1-0.25-0.16c-0.1-0.06-0.21-0.12-0.32-0.19
		C279.71,485.48,279.6,485.43,279.5,485.38z M279.62,487.88c0.09-0.12,0.18-0.27,0.29-0.44c0.11-0.17,0.21-0.36,0.32-0.55
		c0.11-0.19,0.21-0.38,0.3-0.56l0.23,0.21c-0.08,0.17-0.17,0.34-0.27,0.53c-0.1,0.19-0.2,0.37-0.3,0.54
		c-0.1,0.18-0.2,0.34-0.29,0.49L279.62,487.88z M279.74,484.06l0.18-0.23c0.1,0.05,0.21,0.1,0.32,0.16
		c0.11,0.06,0.22,0.12,0.33,0.18c0.1,0.06,0.19,0.11,0.26,0.16l-0.19,0.27c-0.07-0.05-0.15-0.11-0.26-0.17
		c-0.1-0.06-0.21-0.13-0.33-0.19C279.94,484.17,279.84,484.11,279.74,484.06z M280.82,485.18h3.05v0.31h-3.05V485.18z
		 M283.41,483.79l0.26,0.25c-0.22,0.07-0.47,0.14-0.75,0.2c-0.28,0.06-0.58,0.11-0.88,0.15c-0.3,0.04-0.6,0.08-0.89,0.11
		c-0.01-0.04-0.02-0.08-0.04-0.14c-0.02-0.05-0.04-0.1-0.06-0.13c0.21-0.02,0.42-0.05,0.64-0.08s0.44-0.06,0.65-0.1
		c0.21-0.04,0.41-0.07,0.59-0.12C283.11,483.88,283.27,483.84,283.41,483.79z M281.18,486.31h2.37v1.82h-0.31v-1.53h-1.76v1.55h-0.3
		V486.31z M281.38,487.66h2.01v0.29h-2.01V487.66z M282.23,484.18h0.31v2.3h-0.31V484.18z"/>
	<path class="st4" d="M289.88,485.61h0.07l0.06-0.01l0.22,0.13c-0.15,0.36-0.35,0.68-0.6,0.95c-0.25,0.27-0.53,0.5-0.85,0.7
		c-0.32,0.19-0.67,0.35-1.04,0.48c-0.37,0.13-0.75,0.23-1.15,0.3c-0.01-0.03-0.03-0.06-0.05-0.1c-0.02-0.04-0.04-0.08-0.07-0.11
		c-0.02-0.04-0.05-0.07-0.07-0.09c0.39-0.07,0.76-0.16,1.12-0.27c0.36-0.11,0.69-0.26,1-0.43c0.31-0.18,0.57-0.39,0.8-0.63
		c0.23-0.24,0.41-0.53,0.54-0.86V485.61z M286.61,484.52h4.04v0.32h-4.04V484.52z M286.82,485.61h3.14v0.31h-3.14V485.61z
		 M287.53,485.85c0.27,0.56,0.69,1,1.26,1.33s1.26,0.55,2.06,0.66c-0.02,0.02-0.05,0.05-0.07,0.09c-0.03,0.04-0.05,0.07-0.07,0.11
		c-0.02,0.04-0.04,0.07-0.06,0.1c-0.55-0.08-1.04-0.22-1.48-0.4c-0.44-0.19-0.82-0.43-1.14-0.72c-0.32-0.3-0.59-0.65-0.79-1.06
		L287.53,485.85z M288.46,483.77h0.33v1.99h-0.33V483.77z"/>
	<path class="st4" d="M293.33,486.44c0.19-0.05,0.41-0.12,0.68-0.21c0.26-0.08,0.53-0.17,0.8-0.26l0.04,0.3
		c-0.26,0.08-0.51,0.17-0.77,0.25c-0.26,0.08-0.49,0.16-0.69,0.23L293.33,486.44z M293.37,484.74h1.45v0.3h-1.45V484.74z
		 M293.99,483.77h0.3v4.01c0,0.09-0.01,0.16-0.04,0.21c-0.02,0.05-0.06,0.09-0.12,0.11c-0.05,0.03-0.12,0.04-0.22,0.05
		c-0.09,0.01-0.22,0.01-0.37,0.01c-0.01-0.04-0.02-0.09-0.04-0.14c-0.02-0.06-0.04-0.11-0.06-0.15c0.11,0,0.21,0,0.29,0
		c0.08,0,0.14,0,0.17,0c0.03,0,0.05-0.01,0.06-0.02c0.01-0.01,0.02-0.03,0.02-0.07V483.77z M295.61,485.24h0.31
		c-0.02,0.19-0.04,0.39-0.07,0.6c-0.03,0.21-0.07,0.43-0.12,0.64c-0.05,0.22-0.12,0.43-0.22,0.64c-0.09,0.21-0.21,0.4-0.35,0.58
		c-0.14,0.18-0.31,0.33-0.51,0.47c-0.02-0.04-0.06-0.08-0.1-0.12c-0.04-0.04-0.08-0.08-0.12-0.1c0.19-0.12,0.35-0.27,0.49-0.43
		c0.13-0.17,0.24-0.35,0.33-0.54c0.08-0.19,0.15-0.39,0.2-0.59c0.05-0.2,0.08-0.4,0.11-0.59
		C295.57,485.58,295.59,485.4,295.61,485.24z M294.84,485.74h2.89v0.27h-2.89V485.74z M297.3,483.8l0.19,0.24
		c-0.16,0.04-0.34,0.07-0.55,0.1c-0.2,0.03-0.42,0.05-0.64,0.07c-0.23,0.02-0.45,0.04-0.68,0.05c-0.23,0.01-0.45,0.02-0.66,0.03
		c0-0.04-0.01-0.08-0.03-0.13c-0.02-0.05-0.03-0.09-0.05-0.12c0.21-0.01,0.42-0.02,0.65-0.04c0.22-0.01,0.44-0.03,0.66-0.05
		c0.22-0.02,0.42-0.04,0.61-0.07S297.16,483.84,297.3,483.8z M294.95,485.06h2.64v0.27h-2.64V485.06z M295.1,484.43l0.25-0.07
		c0.05,0.09,0.1,0.2,0.14,0.31c0.05,0.11,0.08,0.21,0.1,0.28l-0.27,0.1c-0.02-0.08-0.05-0.18-0.1-0.3
		C295.19,484.64,295.14,484.53,295.1,484.43z M297.08,486.37h0.07l0.06-0.01l0.18,0.08c-0.11,0.34-0.26,0.62-0.45,0.85
		c-0.2,0.23-0.43,0.42-0.69,0.56c-0.26,0.14-0.55,0.25-0.86,0.34c-0.01-0.03-0.03-0.05-0.05-0.08c-0.02-0.03-0.04-0.06-0.07-0.09
		c-0.02-0.03-0.05-0.05-0.07-0.07c0.3-0.07,0.58-0.16,0.83-0.29c0.25-0.12,0.47-0.29,0.65-0.49c0.18-0.2,0.32-0.44,0.4-0.74V486.37z
		 M295.75,486.53c0.11,0.24,0.27,0.45,0.47,0.63c0.2,0.19,0.43,0.34,0.7,0.47c0.27,0.12,0.57,0.22,0.89,0.28
		c-0.03,0.03-0.07,0.08-0.11,0.13c-0.04,0.05-0.07,0.1-0.1,0.14c-0.49-0.11-0.92-0.3-1.29-0.56c-0.37-0.27-0.65-0.6-0.84-1
		L295.75,486.53z M295.51,486.37h1.65v0.25h-1.65V486.37z M295.96,484.33l0.26-0.04c0.03,0.1,0.06,0.21,0.09,0.34
		c0.03,0.12,0.05,0.22,0.06,0.3l-0.28,0.07c-0.01-0.08-0.03-0.19-0.05-0.31C296.02,484.55,295.99,484.44,295.96,484.33z
		 M297.13,484.25l0.31,0.1c-0.09,0.15-0.18,0.3-0.28,0.46c-0.1,0.16-0.19,0.3-0.28,0.41l-0.24-0.1c0.06-0.08,0.12-0.17,0.18-0.27
		s0.12-0.21,0.18-0.31C297.04,484.43,297.09,484.33,297.13,484.25z"/>
	<path class="st4" d="M301.44,484.45h0.28v0.59c0,0.23-0.01,0.47-0.04,0.74c-0.02,0.26-0.08,0.53-0.16,0.81
		c-0.08,0.27-0.2,0.54-0.37,0.81c-0.17,0.27-0.4,0.52-0.68,0.75c-0.01-0.02-0.03-0.05-0.06-0.07c-0.03-0.02-0.05-0.05-0.08-0.07
		c-0.03-0.02-0.05-0.04-0.08-0.05c0.28-0.22,0.5-0.46,0.65-0.71c0.16-0.25,0.28-0.5,0.35-0.76s0.13-0.51,0.15-0.75
		c0.02-0.24,0.03-0.47,0.03-0.69V484.45z M300.28,484.86c0.22-0.01,0.47-0.02,0.77-0.04c0.3-0.02,0.6-0.03,0.92-0.05v0.28
		c-0.3,0.02-0.59,0.04-0.88,0.06c-0.29,0.02-0.55,0.03-0.77,0.04L300.28,484.86z M300.37,486.41c0.05-0.16,0.1-0.35,0.15-0.57
		c0.05-0.22,0.1-0.44,0.14-0.68c0.05-0.24,0.09-0.48,0.12-0.71c0.04-0.24,0.06-0.46,0.08-0.66l0.28,0.01
		c-0.02,0.21-0.05,0.44-0.09,0.69c-0.04,0.24-0.08,0.48-0.13,0.73c-0.05,0.24-0.1,0.47-0.15,0.69c-0.05,0.22-0.1,0.42-0.14,0.59
		L300.37,486.41z M300.37,486.41l0.18-0.21c0.12,0.1,0.25,0.2,0.39,0.32c0.13,0.12,0.26,0.23,0.39,0.35
		c0.13,0.12,0.24,0.23,0.35,0.34c0.11,0.11,0.19,0.21,0.26,0.3l-0.2,0.25c-0.07-0.1-0.16-0.2-0.26-0.31
		c-0.1-0.11-0.22-0.23-0.34-0.35c-0.13-0.12-0.25-0.24-0.38-0.36C300.63,486.62,300.5,486.51,300.37,486.41z M302.68,486.93
		l0.24,0.09c-0.05,0.14-0.12,0.27-0.21,0.41c-0.08,0.14-0.18,0.26-0.28,0.37c-0.1,0.11-0.21,0.21-0.31,0.29
		c-0.03-0.04-0.06-0.08-0.1-0.13c-0.04-0.05-0.08-0.08-0.12-0.11c0.1-0.06,0.2-0.14,0.3-0.24c0.1-0.1,0.19-0.21,0.27-0.33
		C302.56,487.17,302.62,487.05,302.68,486.93z M301.95,484.3h2.68v0.28h-2.68V484.3z M301.96,486.49h2.66v0.28h-2.66V486.49z
		 M302.39,483.77h0.3v2h1.19v-2h0.31v2.27h-1.8V483.77z M302.55,485.04h1.46v0.26h-1.46V485.04z M303.14,485.99h0.31v2.17h-0.31
		V485.99z M303.69,487.04l0.24-0.1c0.09,0.1,0.18,0.22,0.27,0.34c0.09,0.12,0.18,0.24,0.26,0.36c0.08,0.12,0.15,0.22,0.2,0.3
		l-0.24,0.12c-0.05-0.09-0.12-0.19-0.2-0.31c-0.08-0.12-0.17-0.24-0.26-0.37C303.87,487.26,303.78,487.14,303.69,487.04z"/>
	<path class="st4" d="M309.52,483.76l0.28,0.14c-0.18,0.26-0.39,0.51-0.63,0.75c-0.24,0.24-0.51,0.45-0.8,0.65
		c-0.29,0.19-0.59,0.36-0.9,0.49c-0.03-0.04-0.06-0.09-0.1-0.15c-0.04-0.05-0.08-0.1-0.13-0.13c0.3-0.12,0.6-0.27,0.89-0.45
		c0.29-0.18,0.55-0.38,0.79-0.6S309.36,484.01,309.52,483.76z M307.98,486.25h2.95v1.89h-0.34v-1.6h-2.3v1.62h-0.32V486.25z
		 M308.13,487.57h2.58v0.3h-2.58V487.57z M308.22,485.34h2.42v0.3h-2.42V485.34z M309.57,484.03c0.28,0.32,0.6,0.6,0.95,0.83
		c0.35,0.23,0.73,0.43,1.15,0.61c-0.04,0.03-0.08,0.08-0.13,0.13c-0.04,0.05-0.08,0.11-0.1,0.16c-0.28-0.13-0.54-0.28-0.79-0.43
		c-0.25-0.15-0.49-0.32-0.71-0.51c-0.23-0.19-0.44-0.4-0.65-0.64L309.57,484.03z"/>
	<path class="st4" d="M314.23,486.14h4.29v0.32h-4.29V486.14z M314.48,484.1h3.77v0.32h-3.77V484.1z M314.82,484.75l0.29-0.09
		c0.07,0.12,0.13,0.24,0.19,0.38c0.06,0.13,0.12,0.27,0.17,0.39c0.05,0.13,0.09,0.24,0.11,0.34l-0.31,0.11
		c-0.02-0.1-0.06-0.21-0.1-0.34c-0.05-0.13-0.1-0.26-0.16-0.4S314.88,484.87,314.82,484.75z M316.19,484.22h0.33v3.95h-0.33V484.22z
		 M317.61,484.63l0.34,0.1c-0.06,0.13-0.12,0.27-0.19,0.41c-0.07,0.14-0.14,0.28-0.21,0.41c-0.07,0.13-0.14,0.24-0.2,0.34
		l-0.27-0.09c0.06-0.1,0.13-0.22,0.19-0.36c0.07-0.14,0.13-0.27,0.19-0.42C317.52,484.88,317.57,484.75,317.61,484.63z"/>
	<path class="st4" d="M321.5,485.74c0-0.02-0.01-0.05-0.02-0.09c-0.01-0.04-0.03-0.08-0.04-0.12c-0.01-0.04-0.03-0.08-0.04-0.11
		c0.05-0.01,0.11-0.04,0.18-0.09c0.06-0.05,0.14-0.11,0.22-0.19c0.04-0.04,0.11-0.11,0.19-0.2c0.09-0.09,0.18-0.2,0.29-0.32
		c0.11-0.12,0.22-0.26,0.33-0.41c0.11-0.15,0.22-0.3,0.31-0.45l0.32,0.14c-0.16,0.21-0.32,0.42-0.49,0.62
		c-0.17,0.2-0.34,0.39-0.51,0.56c-0.17,0.17-0.35,0.33-0.52,0.48v0.01c-0.05,0.02-0.08,0.04-0.11,0.05
		c-0.03,0.02-0.05,0.04-0.08,0.06C321.51,485.71,321.5,485.72,321.5,485.74z M321.5,485.74v-0.25l0.24-0.12l3.09-0.15
		c0,0.04,0.01,0.09,0.01,0.15c0.01,0.06,0.01,0.1,0.02,0.14c-0.48,0.03-0.9,0.05-1.25,0.07c-0.35,0.02-0.64,0.04-0.88,0.05
		c-0.24,0.01-0.43,0.03-0.58,0.04c-0.15,0.01-0.27,0.02-0.35,0.03c-0.08,0.01-0.15,0.02-0.19,0.03
		C321.57,485.72,321.53,485.73,321.5,485.74z M321.78,486.16h3.05v1.99h-0.34v-1.68h-2.38v1.7h-0.33V486.16z M321.94,487.58h2.7
		v0.32h-2.7V487.58z M323.79,484.5l0.25-0.17c0.16,0.13,0.32,0.29,0.48,0.45c0.17,0.17,0.32,0.33,0.46,0.5
		c0.14,0.16,0.25,0.31,0.33,0.45l-0.27,0.2c-0.08-0.13-0.19-0.29-0.33-0.45c-0.14-0.17-0.29-0.34-0.45-0.51
		C324.11,484.8,323.95,484.64,323.79,484.5z"/>
</g>
<circle class="st2" cx="266.78" cy="486.08" r="1.22"/>
<circle class="st5" cx="331.17" cy="486.51" r="1.22"/>
</svg>
