<?xml version="1.0" encoding="utf-8"?>
<!-- Generator: Adobe Illustrator 26.0.1, SVG Export Plug-In . SVG Version: 6.00 Build 0)  -->
<svg version="1.1" id="圖層_1" xmlns="http://www.w3.org/2000/svg" xmlns:xlink="http://www.w3.org/1999/xlink" x="0px" y="0px"
	 viewBox="252.34 402.99 61.05 60.55" style="enable-background:new 0 0 595.28 841.89;" xml:space="preserve">
<style type="text/css">
	.st0{fill:#F4BD28;}
</style>
<path class="st0" d="M282.83,461.27c-6.51,0-13.02,0.01-19.53,0c-5.02-0.01-8.67-3.59-8.68-8.64c-0.03-12.96-0.03-25.92,0-38.89
	c0.01-4.79,3.72-8.46,8.53-8.47c13.08-0.03,26.15-0.02,39.23-0.01c4.89,0,8.7,3.59,8.72,8.47c0.06,11.09-0.02,22.17-0.05,33.26
	c0,1.93,0,3.86-0.03,5.79c-0.08,4.81-3.7,8.45-8.51,8.47c-6.57,0.03-13.13,0.01-19.7,0.01
	C282.83,461.26,282.83,461.27,282.83,461.27z M272.41,433.41c0.1,0.18,0.19,0.35,0.29,0.53c-2.33,2.85-4.65,5.71-7.01,8.53
	c-0.85,1.01-1.63,2.03-1.03,3.41c0.61,1.41,1.91,1.5,3.22,1.48c3.7-0.04,7.17-1.06,10.54-2.47c1.67-0.7,3.37-1.24,5.32-0.68
	c-0.82,2.52-2.06,4.71-4.21,6.06c-2.07,1.3-4.37,2.22-6.89,3.47c0.98,0.31,1.72,0.69,2.49,0.76c2.87,0.26,5.68-0.44,7.69-2.37
	c2.09-2,4.3-1.39,6.84-1.5c-0.36,1.19-0.66,2.18-0.94,3.16c-0.37,1.3,0.12,1.91,1.46,1.7c0.92-0.14,1.85-0.37,2.72-0.69
	c0.75-0.27,2.03-0.21,1.77-1.5c-0.25-1.25-1.35-0.79-2.19-0.75c-0.09,0-0.19-0.08,0.08,0.04c-0.13-1.53,0.22-3.29-0.49-4.06
	c-0.8-0.87-2.57-0.85-4.06-1.26c0.22-0.58,0.47-1.22,0.73-1.88c0.62,0.23,1.07,0.42,1.54,0.58c3,0.99,6.65-0.46,7.99-3.32
	c0.24-0.52-0.15-1.35-0.25-2.03c-0.69,0.12-1.41,0.16-2.06,0.4c-0.29,0.11-0.43,0.62-0.67,0.92c-1.46,1.8-3.53,2.01-5.4,0.55
	c2.76-1.55,3.74-3.95,2.55-6.24c-0.98-1.88-3.61-2.74-5.59-1.83c-2.36,1.08-2.91,3.22-1.6,6.66c-5.08-1.54-9.38,2.1-14.53,1.97
	c0.52-0.65,0.89-1.1,1.23-1.56c1.7-2.31,3.47-4.56,5.03-6.96c0.57-0.88,1.08-1.17,2.07-1.15c2.7,0.05,5.41,0.02,8.11-0.03
	c0.58-0.01,1.41-0.05,1.68-0.4c0.48-0.64,1.02-1.69,0.79-2.28c-0.26-0.67-1.31-1.39-2.06-1.43c-2.9-0.16-5.81-0.07-8.89-0.07
	c0.18-1.2,0.38-2.16,0.47-3.14c0.1-1.02,0.54-1.39,1.6-1.36c1.82,0.06,3.64-0.03,5.46-0.11c1.42-0.06,2.5-1.1,2.43-2.38
	c-0.08-1.55-1.17-1.79-2.46-1.76c-1.96,0.03-3.91,0.01-5.96,0.01c0.32-1.8,0.56-3.21,0.82-4.62c0.28-1.58-0.23-2.53-1.53-2.79
	c-1.26-0.26-2.42,0.57-2.73,2c-0.3,1.4-0.47,2.83-0.87,4.2c-0.13,0.46-0.78,1.03-1.24,1.08c-1.53,0.16-3.08,0.1-4.63,0.14
	c-1.68,0.03-2.64,0.85-2.67,2.27c-0.03,1.32,0.88,2.07,2.58,2.09c1.59,0.02,3.18,0,4.94,0c-0.31,1.59-0.59,2.96-0.88,4.42
	c-2.91,0-5.66-0.03-8.41,0.01c-1.65,0.02-2.51,0.85-2.44,2.26c0.08,1.59,1.1,1.96,2.5,1.94
	C267.93,433.38,270.17,433.41,272.41,433.41z M301.3,425.67c-2.68-0.39-4.15,0.4-6.14,3.23c-1.07-3.93-2.33-5.2-5.08-5.03
	c-0.16,2.22,0.3,4.36,2.33,5.4c1.64,0.83,1.9,1.67,1.28,3.16c-0.11,0.26-0.1,0.57-0.14,0.86c0.1,0.05,0.2,0.1,0.31,0.15
	c0.56-0.84,1.12-1.68,1.69-2.55C299.39,430.62,300.85,429.34,301.3,425.67z"/>
</svg>
